<?xml version="1.0" encoding="iso-8859-1"?>
<!-- Uploaded to: SVG Repo, www.svgrepo.com, Generator: SVG Repo Mixer Tools -->
<svg version="1.1" id="Layer_1" xmlns="http://www.w3.org/2000/svg" xmlns:xlink="http://www.w3.org/1999/xlink" 
	 viewBox="0 0 369 369" xml:space="preserve">
<g>
	<rect x="54.633" y="7.5" style="fill:#333E48;" width="259.734" height="354"/>
	<polygon style="fill:#61B4E4;" points="270.103,71.396 74.373,71.396 98.902,39.66 294.633,39.66 	"/>
	<g>
		<path style="fill:#FEE050;" d="M289.638,355.244c0-58.064-47.071-105.137-105.137-105.137S79.364,297.18,79.364,355.244v6.256
			h210.273v-6.256H289.638z"/>
		<path style="fill:#FEE050;" d="M267.145,204.918c0-45.644-37-82.644-82.644-82.644c-45.639,0-82.641,37-82.641,82.644
			c0,45.641,37.002,82.641,82.641,82.641C230.145,287.559,267.145,250.559,267.145,204.918z"/>
		<circle style="fill:#1E252B;" cx="132.039" cy="187.742" r="9.718"/>
		<circle style="fill:#1E252B;" cx="236.965" cy="187.742" r="9.718"/>
		<g>
			<path style="fill:#AF8400;" d="M230.172,204.918c0,25.221-20.445,45.668-45.671,45.668c-25.221,0-45.67-20.447-45.67-45.668
				H230.172z"/>
		</g>
		<g>
			<path style="fill:#FFFFFF;" d="M153.21,164.533v26.354h13.522c0-4.421,3.584-8.007,8.007-8.007h19.521
				c4.423,0,8.007,3.586,8.007,8.007h13.522v-26.354H153.21z"/>
			<g>
				<circle style="fill:#FFFFFF;" cx="132.039" cy="185.04" r="35.192"/>
				<circle style="fill:#005CB9;" cx="132.039" cy="185.04" r="26.019"/>
				<path style="opacity:0.1;fill:#FFFFFF;enable-background:new    ;" d="M145.679,162.883l-35.797,35.797
					c3.956,6.411,10.613,10.975,18.387,12.104l29.515-29.515C156.654,173.496,152.09,166.838,145.679,162.883z"/>
			</g>
			<g>
				<circle style="fill:#FFFFFF;" cx="236.962" cy="185.04" r="35.192"/>
				<circle style="fill:#005CB9;" cx="236.962" cy="185.04" r="26.019"/>
				<path style="opacity:0.1;fill:#FFFFFF;enable-background:new    ;" d="M250.602,162.883l-35.797,35.797
					c3.956,6.411,10.613,10.975,18.387,12.104l29.515-29.515C261.577,173.496,257.014,166.838,250.602,162.883z"/>
			</g>
		</g>
		<path style="fill:#FFFFFF;" d="M210.822,106.115c18.533,0,35.347-7.313,47.751-19.194c0.249,2.165,0.39,4.362,0.39,6.594
			c0,31.586-25.604,57.194-57.193,57.194h-48.56c-12.315,0-22.297-9.983-22.297-22.297s9.981-22.297,22.297-22.297
			C153.21,106.115,210.822,106.115,210.822,106.115z"/>
	</g>
	<path style="fill:#071C2C;" d="M314.367,0H54.633c-4.143,0-7.5,3.357-7.5,7.5v354c0,4.143,3.357,7.5,7.5,7.5h259.734
		c4.143,0,7.5-3.357,7.5-7.5V7.5C321.867,3.357,318.51,0,314.367,0z M86.872,354c0.114-9.204,1.504-18.182,4.042-26.732h76.317v-15
		h-70.47c2.483-5.076,5.41-9.926,8.749-14.5h61.722v-15h-48.167c4.234-3.808,8.831-7.291,13.778-10.382
		c1.99-1.244,3.283-3.348,3.495-5.685c0.211-2.338-0.684-4.64-2.419-6.22c-11.207-10.21-18.958-23.537-22.451-38.046
		c6.105,3.371,13.116,5.297,20.571,5.297c1.456,0,2.895-0.078,4.315-0.22c8.663,18.523,27.269,30.573,48.146,30.573
		c20.879,0,39.485-12.049,48.147-30.573c1.42,0.142,2.858,0.22,4.314,0.22c7.456,0,14.469-1.926,20.575-5.3
		c-3.493,14.511-11.244,27.839-22.453,38.049c-1.734,1.581-2.63,3.883-2.419,6.22c0.211,2.338,1.505,4.441,3.495,5.686
		c17.376,10.858,30.515,26.453,38.21,44.559H201.77v15h77.579c1.734,7.127,2.688,14.514,2.781,22.055H86.872V354z M154.54,168.91
		c1.409,1.961,3.676,3.123,6.091,3.123h47.74c2.415,0,4.682-1.163,6.091-3.124c5.201-7.239,13.613-11.562,22.501-11.562
		c15.27,0,27.691,12.423,27.691,27.692s-12.422,27.692-27.691,27.692c-14.236,0-26.077-10.659-27.542-24.794
		c-0.044-0.428-0.125-0.851-0.242-1.264c-1.877-6.65-8.012-11.295-14.918-11.295H174.74c-6.9,0-13.034,4.64-14.915,11.282
		c-0.117,0.416-0.199,0.841-0.243,1.271c-1.463,14.138-13.304,24.799-27.542,24.799c-15.27,0-27.692-12.423-27.692-27.692
		s12.423-27.692,27.692-27.692C140.927,157.348,149.338,161.67,154.54,168.91z M138.413,128.412c0-8.159,6.638-14.797,14.797-14.797
		h57.612c14.229,0,27.936-3.897,39.838-11.177c-4.216,23.157-24.535,40.771-48.891,40.771h-48.56
		C145.051,143.209,138.413,136.571,138.413,128.412z M204.158,212.418c3.782,4.533,8.479,8.255,13.807,10.891
		c-6.606,12.06-19.305,19.777-33.464,19.777c-14.158,0-26.856-7.719-33.462-19.777c5.326-2.637,10.021-6.357,13.804-10.891
		L204.158,212.418L204.158,212.418z M172.906,197.418c0.666-2.219,1.168-4.514,1.472-6.88c0.079-0.086,0.197-0.158,0.361-0.158
		h19.521c0.165,0,0.283,0.073,0.362,0.16c0.304,2.365,0.806,4.659,1.471,6.878H172.906z M306.867,354h-9.748
		c-0.383-35.504-17.104-68.12-45.338-89.101c14.589-16.385,22.817-37.706,22.859-59.812c3.195-5.982,5.014-12.806,5.014-20.048
		c0-18.313-11.593-33.967-27.823-40.017c-1.591-1.787-3.235-3.529-4.964-5.188c12.075-11.76,19.596-28.174,19.596-46.321
		c0-2.412-0.147-4.919-0.438-7.45c-0.326-2.83-2.227-5.231-4.906-6.198c-2.678-0.966-5.675-0.332-7.732,1.639
		c-11.521,11.033-26.637,17.11-42.563,17.11H153.21c-16.43,0-29.797,13.367-29.797,29.797c0,3.134,0.489,6.155,1.391,8.995
		c-2.691,2.382-5.236,4.93-7.626,7.613c-16.234,6.048-27.831,21.703-27.831,40.02c0,7.245,1.819,14.071,5.018,20.056
		c0.044,22.102,8.272,43.42,22.858,59.803c-7.091,5.269-13.453,11.271-19.017,17.869H79.004v15h8.546
		c-2.759,4.648-5.177,9.492-7.235,14.5h-1.311v3.334c-4.52,12.079-6.978,25.033-7.121,38.398h-9.75V15h244.734V354z M74.373,78.896
		h195.729c2.322,0,4.514-1.076,5.934-2.913l24.53-31.736c1.75-2.264,2.06-5.324,0.799-7.893c-1.261-2.567-3.872-4.194-6.732-4.194
		H98.902c-2.322,0-4.514,1.076-5.935,2.913L68.438,66.81c-1.749,2.264-2.059,5.324-0.798,7.893
		C68.901,77.27,71.513,78.896,74.373,78.896z M102.585,47.16h176.771L266.42,63.896H89.649L102.585,47.16z"/>
</g>
</svg>